<?xml version="1.0" encoding="iso-8859-1"?>
<!-- Generator: Adobe Illustrator 19.0.0, SVG Export Plug-In . SVG Version: 6.00 Build 0)  -->
<svg version="1.1" id="Capa_1" xmlns="http://www.w3.org/2000/svg" xmlns:xlink="http://www.w3.org/1999/xlink" x="0px" y="0px"
	 viewBox="0 0 512 512" style="enable-background:new 0 0 512 512;" xml:space="preserve">
<g>
	<g>
		<g>
			<circle cx="219.429" cy="393.143" r="18.286"/>
			<path d="M219.429,329.143c-40.396,0-73.143,32.747-73.143,73.143c0,40.396,32.747,73.143,73.143,73.143
				c40.396,0,73.143-32.747,73.143-73.143C292.525,361.909,259.805,329.189,219.429,329.143z M228.571,428.416V448
				c0,5.049-4.093,9.143-9.143,9.143c-5.049,0-9.143-4.093-9.143-9.143v-19.584c-17.831-4.604-29.458-21.749-27.137-40.018
				c2.32-18.269,17.864-31.963,36.28-31.963c18.416,0,33.959,13.694,36.28,31.963C258.029,406.667,246.403,423.812,228.571,428.416z
				"/>
			<path d="M402.286,274.286v-36.571c-0.01-10.095-8.191-18.276-18.286-18.286H215.772c-12.18-0.01-23.558-6.08-30.348-16.192
				l-20.321-30.487c-3.392-5.109-9.117-8.179-15.25-8.179H54.857c-10.095,0.01-18.276,8.191-18.286,18.286v310.857
				c0.01,10.095,8.191,18.276,18.286,18.286h352.516c-3.294-5.533-5.051-11.846-5.088-18.286V274.286z M304.069,436.92
				c-14.047,34.375-47.506,56.826-84.64,56.795c-37.135,0.031-70.593-22.419-84.64-56.795c-14.047-34.375-5.888-73.833,20.64-99.818
				v-35.388c0.04-35.33,28.67-63.96,64-64c35.33,0.039,63.961,28.67,64,64v35.388C309.957,363.087,318.116,402.545,304.069,436.92z"
				/>
			<path d="M384,73.143h41.929l-60.214-60.214v41.929C365.724,64.952,373.905,73.133,384,73.143z"/>
			<path d="M265.143,323.227v-21.513c-0.044-25.229-20.485-45.67-45.714-45.714c-25.235,0.03-45.685,20.479-45.714,45.714v21.513
				C201.959,306.734,236.898,306.734,265.143,323.227z"/>
			<path d="M420.571,256v219.429c10.095-0.01,18.276-8.191,18.286-18.286V91.429H384c-20.188-0.023-36.548-16.383-36.571-36.571V0
				h-256C81.334,0.01,73.153,8.191,73.143,18.286v128h76.71c12.247-0.005,23.684,6.122,30.464,16.321l20.295,30.446
				c3.395,5.048,9.077,8.08,15.161,8.089H384c20.188,0.023,36.548,16.383,36.571,36.571V256z M310.857,182.857h-91.429
				c-5.049,0-9.143-4.093-9.143-9.143s4.093-9.143,9.143-9.143h91.429c5.049,0,9.143,4.093,9.143,9.143
				S315.907,182.857,310.857,182.857z M310.857,146.286H201.143c-5.049,0-9.143-4.093-9.143-9.143c0-5.049,4.093-9.143,9.143-9.143
				h109.714c5.049,0,9.143,4.093,9.143,9.143C320,142.192,315.907,146.286,310.857,146.286z M310.857,109.714H109.714
				c-5.049,0-9.143-4.093-9.143-9.143c0-5.049,4.093-9.143,9.143-9.143h201.143c5.049,0,9.143,4.093,9.143,9.143
				C320,105.621,315.907,109.714,310.857,109.714z M310.857,73.143H109.714c-5.049,0-9.143-4.093-9.143-9.143
				s4.093-9.143,9.143-9.143h201.143c5.049,0,9.143,4.093,9.143,9.143S315.907,73.143,310.857,73.143z"/>
			<path d="M457.143,265.143v192c-0.023,20.188-16.383,36.548-36.571,36.571c0.01,10.095,8.191,18.276,18.286,18.286h18.286
				c10.095-0.01,18.276-8.191,18.286-18.286V283.429C475.419,273.334,467.238,265.153,457.143,265.143z"/>
		</g>
	</g>
</g>
<g>
</g>
<g>
</g>
<g>
</g>
<g>
</g>
<g>
</g>
<g>
</g>
<g>
</g>
<g>
</g>
<g>
</g>
<g>
</g>
<g>
</g>
<g>
</g>
<g>
</g>
<g>
</g>
<g>
</g>
</svg>
