<?xml version="1.0" encoding="iso-8859-1"?>
<!-- Generator: Adobe Illustrator 19.0.0, SVG Export Plug-In . SVG Version: 6.00 Build 0)  -->
<svg version="1.1" id="Capa_1" xmlns="http://www.w3.org/2000/svg" xmlns:xlink="http://www.w3.org/1999/xlink" x="0px" y="0px"
	 viewBox="0 0 512 512" style="enable-background:new 0 0 512 512;" xml:space="preserve">
<g>
	<g>
		<path d="M332,423.518V512h60v-15C392,460.784,366.197,430.487,332,423.518z"/>
	</g>
</g>
<g>
	<g>
		<path d="M407,272h-38.298c6.211-9.549,11.184-21.85,14.971-32.595c38.58-3.058,69.119-35.067,69.119-74.405
			c0-24.814-20.186-45-45-45h-17.263c-3.373-30.112-16.168-58.339-38.108-80.581C326.639,14.004,290.742,0,255,0
			c-69.309,0-125.911,52.685-133.484,120H105c-24.814,0-45,20.186-45,45c0,24.476,11.836,46.095,30.066,59.685
			C90.062,224.797,90,224.888,90,225v48.516C39.25,280.873,0,324.245,0,377v60c0,41.353,33.633,75,75,75h227v-90h-15H105
			c-8.291,0-15-6.709-15-15v-60c0-8.291,6.709-15,15-15s15,6.709,15,15v45h120v-61.373c4.988,0.569,9.946,1.373,15,1.373
			s12.012-0.804,17-1.373V392h15h30h75v-45c0-8.291,6.709-15,15-15c8.291,0,15,6.709,15,15v60c0,8.291-6.709,15-15,15h-16.75
			c19.534,19.08,31.75,45.608,31.75,75v15h15c41.367,0,75-33.647,75-75v-60C512,319.109,464.891,272,407,272z M392,195v-45h15.791
			c8.262,0,15,6.724,15,15c0,20.33-13.638,37.354-32.179,42.914C391.033,203.597,392,199.378,392,195z M255,30
			c27.803,0,56.229,10.928,76.209,30.63c16.238,16.45,26.111,37.178,29.319,59.37H287c-8.291,0-15,6.709-15,15v15h-32v-15
			c0-8.291-6.709-15-15-15h-73.484C158.873,69.25,202.244,30,255,30z M90,165c0-8.276,6.738-15,15-15h15v45
			c0,4.292,0.956,8.425,1.362,12.66C103.239,201.843,90,185.03,90,165z M120,272v-34.219c2.75,0.564,5.449,1.283,8.298,1.542
			c3.787,10.774,8.774,23.103,15,32.677H120z M326.316,275.706c-29.136,25.422-72.715,31.761-108.047,19.067
			c-11.777-4.237-22.866-10.593-32.578-19.063c-20.881-18.376-33.043-46.22-34.929-73.644C159.448,206.968,169.332,210,180,210
			c11.235,0,21.636-3.298,30.637-8.694C213.739,223.118,232.346,240,255,240c8.291,0,17-6.709,17-15s-8.709-15-17-15
			c-8.262,0-15-6.724-15-15v-15h40.346c10.411,17.847,29.55,30,51.654,30c10.668,0,20.552-3.032,29.238-7.934
			C359.352,229.501,347.186,257.357,326.316,275.706z"/>
	</g>
</g>
<g>
</g>
<g>
</g>
<g>
</g>
<g>
</g>
<g>
</g>
<g>
</g>
<g>
</g>
<g>
</g>
<g>
</g>
<g>
</g>
<g>
</g>
<g>
</g>
<g>
</g>
<g>
</g>
<g>
</g>
</svg>
